<svg width="27" height="27" viewBox="0 0 27 27" fill="none" xmlns="http://www.w3.org/2000/svg">
<path d="M13.5 0C6.04336 0 0 6.04336 0 13.5C0 20.9566 6.04336 27 13.5 27C20.9566 27 27 20.9566 27 13.5C27 6.04336 20.9566 0 13.5 0ZM13.5 24.7482C7.28789 24.7482 2.25176 19.7121 2.25176 13.5C2.25176 7.28789 7.28789 2.25176 13.5 2.25176C19.7121 2.25176 24.7482 7.28789 24.7482 13.5C24.7482 19.7121 19.7121 24.7482 13.5 24.7482ZM14.6232 4.49824H12.3715V13.5L17.434 18.5625L19.1215 16.875L14.6232 12.3768V4.49824V4.49824Z" fill="white"/>
</svg>
